<svg width="248" height="36" viewBox="0 0 248 36" fill="none" xmlns="http://www.w3.org/2000/svg">
<path d="M25.974 6.69L30.342 14.646L20.748 18L30.342 21.276L25.662 29.544L17.862 22.68L19.812 32.82H10.686L12.558 22.68L4.836 29.622L0 21.198L9.594 17.844L0.0780002 14.724L4.524 6.69L12.636 13.476L10.608 3.18H19.89L17.862 13.476L25.974 6.69Z" fill="#D32F2F"/>
<path d="M49.926 26.168C48.694 26.168 47.59 25.968 46.614 25.568C45.638 25.168 44.854 24.576 44.262 23.792C43.686 23.008 43.382 22.064 43.35 20.96H47.718C47.782 21.584 47.998 22.064 48.366 22.4C48.734 22.72 49.214 22.88 49.806 22.88C50.414 22.88 50.894 22.744 51.246 22.472C51.598 22.184 51.774 21.792 51.774 21.296C51.774 20.88 51.63 20.536 51.342 20.264C51.07 19.992 50.726 19.768 50.31 19.592C49.91 19.416 49.334 19.216 48.582 18.992C47.494 18.656 46.606 18.32 45.918 17.984C45.23 17.648 44.638 17.152 44.142 16.496C43.646 15.84 43.398 14.984 43.398 13.928C43.398 12.36 43.966 11.136 45.102 10.256C46.238 9.36 47.718 8.912 49.542 8.912C51.398 8.912 52.894 9.36 54.03 10.256C55.166 11.136 55.774 12.368 55.854 13.952H51.414C51.382 13.408 51.182 12.984 50.814 12.68C50.446 12.36 49.974 12.2 49.398 12.2C48.902 12.2 48.502 12.336 48.198 12.608C47.894 12.864 47.742 13.24 47.742 13.736C47.742 14.28 47.998 14.704 48.51 15.008C49.022 15.312 49.822 15.64 50.91 15.992C51.998 16.36 52.878 16.712 53.55 17.048C54.238 17.384 54.83 17.872 55.326 18.512C55.822 19.152 56.07 19.976 56.07 20.984C56.07 21.944 55.822 22.816 55.326 23.6C54.846 24.384 54.142 25.008 53.214 25.472C52.286 25.936 51.19 26.168 49.926 26.168ZM66.5636 26.168C64.9796 26.168 63.5236 25.8 62.1956 25.064C60.8836 24.328 59.8356 23.304 59.0516 21.992C58.2836 20.664 57.8996 19.176 57.8996 17.528C57.8996 15.88 58.2836 14.4 59.0516 13.088C59.8356 11.776 60.8836 10.752 62.1956 10.016C63.5236 9.28 64.9796 8.912 66.5636 8.912C68.1476 8.912 69.5956 9.28 70.9076 10.016C72.2356 10.752 73.2756 11.776 74.0276 13.088C74.7956 14.4 75.1796 15.88 75.1796 17.528C75.1796 19.176 74.7956 20.664 74.0276 21.992C73.2596 23.304 72.2196 24.328 70.9076 25.064C69.5956 25.8 68.1476 26.168 66.5636 26.168ZM66.5636 22.424C67.9076 22.424 68.9796 21.976 69.7796 21.08C70.5956 20.184 71.0036 19 71.0036 17.528C71.0036 16.04 70.5956 14.856 69.7796 13.976C68.9796 13.08 67.9076 12.632 66.5636 12.632C65.2036 12.632 64.1156 13.072 63.2996 13.952C62.4996 14.832 62.0996 16.024 62.0996 17.528C62.0996 19.016 62.4996 20.208 63.2996 21.104C64.1156 21.984 65.2036 22.424 66.5636 22.424ZM83.5588 26.168C82.3268 26.168 81.2228 25.968 80.2468 25.568C79.2708 25.168 78.4868 24.576 77.8948 23.792C77.3188 23.008 77.0148 22.064 76.9828 20.96H81.3508C81.4148 21.584 81.6308 22.064 81.9988 22.4C82.3668 22.72 82.8468 22.88 83.4388 22.88C84.0468 22.88 84.5268 22.744 84.8788 22.472C85.2308 22.184 85.4068 21.792 85.4068 21.296C85.4068 20.88 85.2628 20.536 84.9748 20.264C84.7028 19.992 84.3588 19.768 83.9428 19.592C83.5428 19.416 82.9668 19.216 82.2148 18.992C81.1268 18.656 80.2388 18.32 79.5508 17.984C78.8628 17.648 78.2708 17.152 77.7748 16.496C77.2788 15.84 77.0308 14.984 77.0308 13.928C77.0308 12.36 77.5988 11.136 78.7348 10.256C79.8708 9.36 81.3508 8.912 83.1748 8.912C85.0308 8.912 86.5268 9.36 87.6628 10.256C88.7988 11.136 89.4068 12.368 89.4868 13.952H85.0468C85.0148 13.408 84.8148 12.984 84.4468 12.68C84.0788 12.36 83.6068 12.2 83.0308 12.2C82.5348 12.2 82.1348 12.336 81.8308 12.608C81.5268 12.864 81.3748 13.24 81.3748 13.736C81.3748 14.28 81.6308 14.704 82.1428 15.008C82.6548 15.312 83.4548 15.64 84.5428 15.992C85.6308 16.36 86.5108 16.712 87.1828 17.048C87.8708 17.384 88.4628 17.872 88.9588 18.512C89.4548 19.152 89.7028 19.976 89.7028 20.984C89.7028 21.944 89.4548 22.816 88.9588 23.6C88.4788 24.384 87.7748 25.008 86.8468 25.472C85.9188 25.936 84.8228 26.168 83.5588 26.168Z" fill="#D32F2F"/>
<path d="M107.802 23.024H101.514L100.506 26H96.2104L102.306 9.152H107.058L113.154 26H108.81L107.802 23.024ZM106.746 19.856L104.658 13.688L102.594 19.856H106.746ZM134.09 9.152V26H129.986V15.896L126.218 26H122.906L119.114 15.872V26H115.01V9.152H119.858L124.586 20.816L129.266 9.152H134.09ZM147.241 17.36C148.217 17.568 149.001 18.056 149.593 18.824C150.185 19.576 150.481 20.44 150.481 21.416C150.481 22.824 149.985 23.944 148.993 24.776C148.017 25.592 146.649 26 144.889 26H137.041V9.152H144.625C146.337 9.152 147.673 9.544 148.633 10.328C149.609 11.112 150.097 12.176 150.097 13.52C150.097 14.512 149.833 15.336 149.305 15.992C148.793 16.648 148.105 17.104 147.241 17.36ZM141.145 15.968H143.833C144.505 15.968 145.017 15.824 145.369 15.536C145.737 15.232 145.921 14.792 145.921 14.216C145.921 13.64 145.737 13.2 145.369 12.896C145.017 12.592 144.505 12.44 143.833 12.44H141.145V15.968ZM144.169 22.688C144.857 22.688 145.385 22.536 145.753 22.232C146.137 21.912 146.329 21.456 146.329 20.864C146.329 20.272 146.129 19.808 145.729 19.472C145.345 19.136 144.809 18.968 144.121 18.968H141.145V22.688H144.169ZM156.893 9.152V19.232C156.893 20.24 157.141 21.016 157.637 21.56C158.133 22.104 158.861 22.376 159.821 22.376C160.781 22.376 161.517 22.104 162.029 21.56C162.541 21.016 162.797 20.24 162.797 19.232V9.152H166.901V19.208C166.901 20.712 166.581 21.984 165.941 23.024C165.301 24.064 164.437 24.848 163.349 25.376C162.277 25.904 161.077 26.168 159.749 26.168C158.421 26.168 157.229 25.912 156.173 25.4C155.133 24.872 154.309 24.088 153.701 23.048C153.093 21.992 152.789 20.712 152.789 19.208V9.152H156.893ZM173.887 22.832H179.263V26H169.783V9.152H173.887V22.832ZM191.709 23.024H185.421L184.413 26H180.117L186.213 9.152H190.965L197.061 26H192.717L191.709 23.024ZM190.653 19.856L188.565 13.688L186.501 19.856H190.653ZM213.988 26H209.884L203.02 15.608V26H198.916V9.152H203.02L209.884 19.592V9.152H213.988V26ZM216.267 17.552C216.267 15.888 216.627 14.408 217.347 13.112C218.067 11.8 219.067 10.784 220.347 10.064C221.643 9.328 223.107 8.96 224.739 8.96C226.739 8.96 228.451 9.488 229.875 10.544C231.299 11.6 232.251 13.04 232.731 14.864H228.219C227.883 14.16 227.403 13.624 226.779 13.256C226.171 12.888 225.475 12.704 224.691 12.704C223.427 12.704 222.403 13.144 221.619 14.024C220.835 14.904 220.443 16.08 220.443 17.552C220.443 19.024 220.835 20.2 221.619 21.08C222.403 21.96 223.427 22.4 224.691 22.4C225.475 22.4 226.171 22.216 226.779 21.848C227.403 21.48 227.883 20.944 228.219 20.24H232.731C232.251 22.064 231.299 23.504 229.875 24.56C228.451 25.6 226.739 26.12 224.739 26.12C223.107 26.12 221.643 25.76 220.347 25.04C219.067 24.304 218.067 23.288 217.347 21.992C216.627 20.696 216.267 19.216 216.267 17.552ZM239.348 12.44V15.848H244.844V19.016H239.348V22.712H245.564V26H235.244V9.152H245.564V12.44H239.348Z" fill="#16356E"/>
</svg>
